<?xml version="1.0" encoding="utf-8"?>
<!-- Generator: Adobe Illustrator 24.0.2, SVG Export Plug-In . SVG Version: 6.00 Build 0)  -->
<svg version="1.1" id="onehealthybite" xmlns="http://www.w3.org/2000/svg" xmlns:xlink="http://www.w3.org/1999/xlink" x="0px"
	 y="0px" width="426.8px" height="95.3px" viewBox="0 0 426.8 95.3" style="enable-background:new 0 0 426.8 95.3;"
	 xml:space="preserve">
<g>
	<path d="M43.4,37.2l-2.2,8.5l-6.4,10.6l-4.3,4.3L24,62.9h-4.5l-0.1-0.1l-4.2-2.1l-2.2-2.3l-2.2-6.5v-8.5l2.2-8.5l6.4-10.6l4.2-4.3
		l4.3-2.2l0.5,0.9l-4.1,2l-4.1,6.2L16,35.2l-2.1,8.3v8.3L16,58l4,4h4l6.1-2l4.1-4.1l6.2-10.4l2-8.3v-8.3l-2-6.1l-1.9-1.9h-1.8
		l-4,2.1l-4.1,4.1l-4.1,8.3l-2.1,10.4v6.2h-1v-6.4l2.1-10.6l4.3-8.5l4.3-4.3l4.4-2.1h2.4l2.3,2.3l2.2,6.5V37.2z"/>
	<path d="M87.8,52.1l-4.2,6.4l-2.2,2.2L76.8,63l-4.6-2.4v-4.5l2.1-6.3v-3.9L72.5,44h-1.8l-4,2l-4.1,4l-4.2,12.5h-2.1l-1-0.4
		l4.2-12.4v-3.9l-1.7-1.7L54,46L50,52.2l-0.8-0.5l4.3-6.4l4.5-2.3l4.7,2.3v3.4l3.4-3.5l4.4-2.2h2.3l4.6,2.3v4.6l-2.1,6.4L75,60.1
		l1.9,1.7l3.8-1.9l2.1-2l4.1-6.2L87.8,52.1z"/>
	<path d="M113.3,52.1l-4.3,6.4l-6.5,4.3H96l-4.5-2.2l-2.2-4.4v-4.5l2.1-4.4l2.2-2.2l4.4-2.2h2.4l2.4,2.4v4.5l-2.2,4.4l-2.2,2.2
		l-4.2,2.1l-0.5-0.8l4.2-2.1l2-2l2.1-4v-3.9l-1.8-1.8h-1.7l-4,4l-2.1,4v6l3.9,3.9h6l6.1-4.1l4.1-6.2L113.3,52.1z"/>
	<path d="M157.9,22.6l-2.2,4.4l-4.3,4.3l-6.4,4.2l-1.6,0.7l-2.3,7.4L139,52v6.1l1.9,3.8h1.7l4-2l4.1-4.2l0.7,0.7l-4.2,4.2l-4.4,2.2
		h-2.4l-4.5-4.5v-6.5l2.1-8.5l2-5.8l-5.5,2.2l-8.4,2.8l-3.9,11.6l-2.1,4.3l-2.2,2.2l-4.3,2.2h-4.6l-2.4-2.4v-4.6l2.5-2.6l2.8,2.8
		l-2.4,2.5l-0.7-0.7l1.8-1.7l-1.4-1.5l-1.6,1.6v3.8l1.8,1.8h3.8l4-4l6.2-14.4l-1.4,0.4l-4.1,2.1l-2.1,2l-0.7-0.7l2.2-2.2l4.3-2.1
		l2.2-0.7l7.9-23.6H126l-6,2l-2,3.9v3.9l2,1.9l-0.7,0.7L117,29v-4.5l2.2-4.5l6.6-2.2h7l-0.2,0.6l-6.3,23.1l1.4-0.6l6.3-2l6.2-2.5
		l1.9-5.7l2.1-4.2l4.3-6.4l4.4-2.2h2.4l2.4,2.4V22.6z M156.9,22.4v-1.8l-1.8-1.8h-1.8l-4,4l-4.2,8.3l-1.3,3.8l0.6-0.3l6.2-4.1
		l4.1-4.1L156.9,22.4z"/>
	<path d="M183.4,52.1l-4.3,6.4l-6.5,4.3H166l-4.5-2.2l-2.2-4.4v-4.5l2.1-4.4l2.2-2.2l4.4-2.2h2.4l2.4,2.4v4.5l-2.2,4.4l-2.2,2.2
		l-4.2,2.1l-0.5-0.8l4.2-2.1l2-2l2.1-4v-3.9l-1.8-1.8h-1.7l-4,4l-2.1,4v6l3.9,3.9h6l6.1-4.1l4.1-6.2L183.4,52.1z"/>
	<path d="M211.1,52.1l-4.3,6.4l-2.2,2.2L200,63l-0.2-0.1l-4.4-2.2v-2.5l-1.3,2.5l-4.4,2.2h-4.5l-0.1-0.1l-4.3-2.2l-2.2-4.4v-4.5
		l2.1-4.4l2.2-2.2l4.3-2.2h4.5l4.5,2.2l1.7,3.3l1.7-5.2h2.1l1,0.4l-4.2,12.5v4l1.7,1.7l3.8-1.9l2.1-2l4.1-6.2L211.1,52.1z
		 M197.5,49.9l-1.9-3.9l-4-2h-3.9l-4,4l-2.1,4v6l3.9,3.9h3.9l4-2l2-4L197.5,49.9z"/>
	<path d="M228.3,18.5l-12.6,37.7v4l1.8,1.7l3.8-1.8l6.2-8.3l0.7,0.6l-6.4,8.5l-4.5,2.3l-4.7-2.3V56l4.2-12.6l-1.2,2.4l-4.2,6.3
		l-0.8-0.5l4.2-6.3L219,37l6.2-18.9h2.1L228.3,18.5z"/>
	<path d="M245.5,18.5l-5.4,16.1h4.9v1h-5.3l-6.9,20.6v4l1.8,1.7l3.8-1.8l6.2-8.3l0.7,0.6l-6.4,8.5l-4.5,2.3l-4.7-2.3V56l4.2-12.6
		l-1.2,2.4l-4.2,6.3l-0.8-0.5l4.2-6.3l4.2-8.3l0.5-1.4h-4.2v-1h4.5l5.5-16.5h2.1L245.5,18.5z"/>
	<path d="M277.3,52.1l-4.2,6.3l-2.2,2.2l-4.5,2.2l-4.7-2.3V56l2.1-6.3v-4L262,44h-1.8l-4,2l-4.1,4l-4.2,12.5h-2.1l-0.9-0.4l6.3-18.8
		l-1.2,2.4l-4.2,6.3l-0.8-0.5l4.2-6.3l4.2-8.3l6.2-18.9h2.1l1,0.4L252.7,48l2.8-2.8l4.4-2.2h2.4l0.1,0.1l4.4,2.2v4.6l-2.1,6.3v3.9
		l1.7,1.7l3.8-1.9l2.1-2l4.1-6.2L277.3,52.1z"/>
	<path d="M311.3,52.1l-4.3,6.4l-6.4,4.2l-5.6,2.8l-4.7,11.7l-4.3,8.6l-4.7,2.3l-2.5-2.5v-4.4l2.1-6.5l6.4-6.5l4.2-2.1l0.6-0.4
		l4.3-12.7l-2.3,3.4l-4.2,4.3l-4.4,2.2h-2.4l-0.1-0.1l-4.4-2.2v-4.5l4.2-12.7h2.1l0.9,0.4l-4.2,12.5v4l1.8,1.8h1.8l4-2l4.2-4.1
		l4.1-6.2l2-6.2h2.1l1,0.4l-4.2,12.6l-3.3,8l4.6-2.3l6.2-4.1l4.1-6.2L311.3,52.1z M291.9,67.1l-3.9,2l-6.2,6.1l-2.1,6.1v4l1.8,1.7
		l3.7-1.8l4.1-10.3L291.9,67.1z"/>
	<path d="M355.8,28.9l-2.2,4.4l-4.4,2.2l-6.9,1.7l4.8,1.6l2.3,2.2l2.2,4.4V52l-2.2,6.5l-2.2,2.3l-4.4,2.2h-4.5l-2.4-2.4v-4.4
		l2.1-6.4l1,0.4l-2.1,6.2v4l1.8,1.8h3.8l4-4l2-6.1v-6.1l-2-4l-2-2l-4-2h-3.7l-2,8l-2.1,6.4l-2.1,4.3l-4.4,4.3l-6.4,2.2h-4.5
		l-2.4-2.4v-4.6l2.6-2.6l2.8,2.8l-2.4,2.5l-0.7-0.7l1.8-1.7l-1.4-1.5l-1.6,1.6v3.8l1.8,1.8h3.9l4-2l4.1-6.2l2.1-4.2l4.1-12.6
		l4.3-10.5l2.1-4.3l2.1-2.1l0.7,0.7l-2.1,2l-2,6.2l-2,7.8h3.5l8.2-2.1l1.9-2l2.1-4v-4l-2.1-4l-1.9-1.9h-12.3l-6.2,2l-4.1,2.1
		l-4.1,4.1l-2.1,4v3.9l1.8,1.8h3.8l1.8-1.9l2.1-4.2l0.8,0.5l-2.1,4.2l-2.3,2.3h-4.5l-2.4-2.4v-4.5l2.1-4.4l4.3-4.3l4.3-2.1l6.4-2.2
		h12.8l4.4,2.2l2.2,4.4V28.9z"/>
	<path d="M379.2,52.1l-4.2,6.4l-2.2,2.2l-4.6,2.3l-4.5-2.4v-4.5l4.2-12.7h2.1l0.9,0.4l-4.2,12.5v4l1.8,1.7l3.8-1.9l2-2l4.1-6.2
		L379.2,52.1z M375.3,35.1l-2.8,2.8l-2.8-2.8l2.8-2.8L375.3,35.1z"/>
	<path d="M396.4,18.5L391,34.6h4.9v1h-5.3l-6.9,20.6v4l1.8,1.7l3.8-1.8l6.2-8.3l0.7,0.6l-6.4,8.5l-4.5,2.3l-4.7-2.3V56l4.2-12.6
		l-1.2,2.4l-4.2,6.3l-0.8-0.5l4.2-6.3l4.2-8.3l0.5-1.4h-4.2v-1h4.5l5.5-16.5h2.1L396.4,18.5z"/>
	<path d="M422,52.1l-4.3,6.4l-6.5,4.3h-6.5l-4.5-2.2l-2.2-4.4v-4.5l2.1-4.4l2.2-2.2l4.4-2.2h2.4l2.4,2.4v4.5l-2.2,4.4l-2.2,2.2
		l-4.2,2.1l-0.5-0.8l4.2-2.1l2-2l2.1-4v-3.9l-1.8-1.8H407l-4,4l-2.1,4v6l3.9,3.9h6l6.1-4.1l4.1-6.2L422,52.1z"/>
</g>
</svg>
